<svg width="107" height="48" viewBox="0 0 107 48" fill="none" xmlns="http://www.w3.org/2000/svg">
<g clip-path="url(#clip0_316_12061)">
<path d="M71.4797 11C72.1459 11 72.7251 10.8056 73.1543 10.4384C73.7335 9.94392 74.007 9.1618 73.9453 8.1762C73.9453 8.10117 73.9579 8.0216 73.9705 7.93748C73.986 7.84085 74 7.74195 74 7.63623C74 5.92421 72.4109 5 70.9159 5C69.0267 5 68.0912 6.2482 68.0014 7.48617V7.49413C67.972 8.53543 68.4039 9.47897 69.2174 10.152C69.8654 10.6897 70.6901 10.9977 71.4769 10.9977L71.4797 11Z" fill="#FF3A8B"/>
<path d="M106.725 33.5078C106.317 32.8512 105.505 32.5153 104.456 32.5598C103.54 32.5598 102.875 32.5961 102.344 32.6359C102.056 30.5972 101.371 28.9657 100.304 27.7837C99.2568 26.6227 97.865 25.9182 96.1618 25.6853C97.3525 24.2352 98.4958 22.6834 98.4958 20.3029C98.4958 17.342 96.0139 15.1102 92.7236 15.1102C90.6299 15.1102 88.7551 16.0125 86.9928 17.8675C85.2825 19.6674 83.8623 22.207 82.816 24.2165C82.7734 24.2973 82.7355 24.3757 82.7024 24.4529C81.1425 27.6596 78.7635 31.764 75.788 31.764C75.053 31.764 74.4044 31.4702 73.8624 30.8921C72.2456 29.1682 71.532 24.8099 71.9533 19.2297C72.6019 17.4695 72.4835 15.8322 71.6349 14.8433C71.1106 14.2312 70.3508 13.9504 69.6051 14.0908C68.6145 14.278 67.786 15.1511 67.3315 16.4841C67.025 17.3759 66.8036 18.1811 66.5894 18.9594C66.1562 20.53 65.7479 22.0139 64.691 24.227C64.6886 24.2317 64.6874 24.2352 64.6851 24.2399L64.5762 24.4646C63.2932 27.1072 60.6243 32.6054 57.1943 32.6054C53.4294 32.6054 51.557 29.0547 51.4718 21.7518C56.831 18.8657 61.1687 11.9116 61.1687 6.17467C61.1687 2.59697 59.1791 0 56.438 0C53.4578 0 51.0517 2.35705 49.4787 6.81718C47.7744 11.6495 47.5909 17.1383 47.5909 19.2742C47.5909 19.9366 47.127 20.8214 46.005 22.9607C45.9091 23.1433 45.8085 23.3364 45.702 23.5389C45.5481 23.739 45.4108 23.9684 45.2972 24.2259L45.18 24.4658C43.897 27.1084 41.2281 32.6066 37.7982 32.6066C34.0332 32.6066 32.1609 29.0558 32.0756 21.753C37.4348 18.8669 41.7725 11.9128 41.7725 6.17584C41.7725 2.59814 39.783 0.00117147 37.0419 0.00117147C34.0617 0.00117147 31.6555 2.35822 30.0825 6.81836C28.3782 11.6507 28.1948 17.1395 28.1948 19.2754C28.1948 19.9378 27.7308 20.8225 26.6088 22.9619C26.4845 23.1995 26.3508 23.4546 26.2099 23.7238C26.0892 23.8806 25.985 24.0503 25.901 24.2259C22.9326 30.3409 20.8792 31.6247 19.6802 31.6247C17.6469 31.6247 16.7 29.6925 16.7 25.5437C16.7 22.7454 17.2291 19.6627 17.6149 17.411C17.6575 17.1606 17.6989 16.9207 17.7368 16.6936L17.7404 16.655C17.7404 15.9388 16.932 15.0645 15.9899 15.0645C15.3496 15.0645 14.4418 15.4554 13.6867 17.2729C12.3019 16.6456 10.897 16.3273 9.50872 16.3273C6.90844 16.3273 4.49161 17.4532 2.7068 19.4954C0.96105 21.4931 0 24.1393 0 26.9457C0 28.1746 0.152679 29.3098 0.481709 30.5152L0.493544 30.5492C1.63923 33.1227 4.08328 34.8525 6.57704 34.8525C8.34054 34.8525 10.8876 34.0297 13.1813 30.1992C14.308 33.5815 16.5686 35.5079 19.4447 35.5079C21.7988 35.5079 25.1672 34.1351 28.3723 27.9382C29.2102 32.7529 33.1266 36.3973 37.6585 36.3973C40.0019 36.3973 42.2045 35.3136 44.2071 33.1766C45.4652 31.833 46.6382 30.0998 47.7649 27.9194C48.5958 32.7435 52.5157 36.3973 57.0547 36.3973C59.3981 36.3973 61.6007 35.3136 63.6033 33.1766C65.1739 31.5007 66.6095 29.2197 67.9896 26.2166C68.0227 26.1499 68.0547 26.0808 68.0866 26.0071C68.0925 25.9942 68.0985 25.9825 68.1032 25.9697C68.1056 25.9638 68.1079 25.958 68.1115 25.9509C68.7328 32.1794 71.3094 35.4622 75.5987 35.4622C79.8879 35.4622 83.3747 32.3562 86.1773 25.965V25.9626C86.1773 25.9626 86.1797 25.9603 86.1797 25.9591C87.1242 23.8584 89.6463 18.9957 92.7248 18.9957C94.4362 18.9957 94.5699 20.4633 94.5699 20.9138C94.5699 22.2234 92.6703 24.5571 88.9244 27.8504C88.2343 28.4636 88.0118 29.3168 88.3278 30.1302C88.6533 30.9693 89.47 31.5334 90.36 31.5334C91.3116 31.5334 91.862 31.0126 92.3946 30.5082C92.9792 29.9546 93.584 29.3812 94.8078 29.3812C96.5559 29.3812 97.6851 30.5258 98.3455 32.9776C93.5698 33.6985 84.731 35.0468 84.731 41.3092C84.731 43.1525 85.3974 44.8366 86.6081 46.0526C87.8769 47.3259 89.6156 48 91.6383 48C97.1892 48 101.809 43.0811 102.452 36.5249C103.55 36.4605 104.337 36.5272 104.867 36.5729L105.007 36.5846H105.027C105.725 36.5846 106.357 36.2054 106.717 35.5676C107.091 34.9063 107.094 34.0988 106.727 33.5101L106.725 33.5078ZM88.6545 41.4485C88.6545 39.9703 90.7352 38.9498 92.481 38.3541C94.7025 37.5957 97.1773 37.2271 98.2697 37.0913C96.9394 41.8487 94.7498 44.0688 91.398 44.0688C89.8274 44.0688 88.6545 42.6855 88.6545 41.4496V41.4485ZM57.431 6.0354C57.431 9.50661 54.8698 15.0411 51.5002 17.3291C51.9097 11.5921 53.6472 3.88316 56.3907 3.88316C57.0038 3.88316 57.431 4.76793 57.431 6.0354ZM38.0349 6.0354C38.0349 9.50661 35.4736 15.0411 32.104 17.3291C32.5136 11.5921 34.251 3.88316 36.9945 3.88316C37.6076 3.88316 38.0349 4.76793 38.0349 6.0354ZM12.5221 21.066C12.2747 23.2112 11.5575 25.642 10.639 27.4443C9.82946 29.0313 8.47547 30.9237 6.62201 30.9237C4.11997 30.9237 3.92587 27.9522 3.92587 27.0417C3.92587 23.0298 6.07403 20.118 9.03529 20.118C10.7988 20.118 11.8936 20.6166 12.5232 21.0671L12.5221 21.066Z" fill="#FF3A8B"/>
</g>
<defs>
<clipPath id="clip0_316_12061">
<rect width="107" height="48" rx="4" fill="white"/>
</clipPath>
</defs>
</svg>
