<?xml version="1.0" encoding="UTF-8"?>
<svg id="_レイヤー_1" data-name="レイヤー 1" xmlns="http://www.w3.org/2000/svg" viewBox="0 0 16 16">
  <defs>
    <style>
      .cls-1 {
        fill: #fff;
      }

      .cls-2 {
        fill: #ff3a8b;
      }
    </style>
  </defs>
  <rect class="cls-2" x="0" width="16.01" height="16.01"/>
  <path class="cls-1" d="m7.85,9.74c-.81,1.47-1.77,2.02-2.66,2.02-1.02,0-1.92-.73-2.34-1.68-.13-.49-.19-.94-.19-1.41,0-2.26,1.58-4.18,3.69-4.18.55,0,1.13.13,1.71.41.26-.7.58-.92.87-.92.34,0,.6.32.6.55-.15.9-.41,2.32-.41,3.58s.17,2.54,1.28,2.54c.92,0,1.88-1.62,2.56-3.03.45-.96,1.6-.34,1.19.62-.89,2.04-2.19,3.79-3.84,3.79-1.3,0-2.11-1.02-2.47-2.28Zm-.19-3.49c-.17-.13-.62-.43-1.49-.43-1.28,0-2.13,1.3-2.13,2.88,0,.89.34,1.66,1.17,1.66,1.39,0,2.28-2.51,2.45-4.11Z"/>
</svg>