<svg width="1065" height="650" viewBox="0 0 1065 650" fill="none" xmlns="http://www.w3.org/2000/svg">
<g opacity="0.4" clip-path="url(#clip0_22_2356)">
<path d="M8.66881 682.761C48.6312 633.792 112.27 623.584 172.014 621.806C186.877 621.367 201.74 621.367 216.582 621.387C230.294 621.387 244.361 625.613 257.57 629.106C282.858 635.8 307.476 644.711 331.885 654.061C373.229 669.917 415.871 689.392 460.857 690.94C481.707 691.651 502.306 687.593 521.209 678.745C544.571 667.805 564.312 650.087 581.017 630.696C592.133 617.79 602.034 603.963 611.371 589.739C616.248 582.313 622.445 576.288 630.064 571.665C647.481 561.123 668.729 558.027 688.742 557.107C739.338 554.743 790.123 565.055 839.527 574.657C860.544 578.736 881.541 583.149 902.747 586.078C911.183 587.249 919.661 587.73 928.097 588.755C938.083 589.969 948.026 591.663 958.095 591.872C983.488 592.437 1004.84 581.56 1018.32 559.784C1025.42 548.342 1029.92 535.917 1029.29 522.32C1028.73 509.832 1024.69 497.511 1018.07 486.947C1011.46 476.384 1001.85 466.824 990.48 461.009C976.496 453.834 961.026 453.541 945.661 452.496C903.772 449.651 861.758 449.232 819.786 448.249C798.79 447.747 777.814 447.12 756.86 445.948C736.721 444.84 716.625 442.622 696.529 440.886C656.252 437.435 615.474 431.829 575.825 423.859C559.309 420.533 540.343 418.169 529.939 403.275C520.414 389.637 521.858 374.053 529.939 360.205C548.067 329.142 584.722 314.646 618.111 306.906C648.884 299.773 687.151 297.158 710.031 272.643C718.216 263.878 724.978 251.306 720.184 239.237C715.39 227.167 702.516 221.414 691.191 217.921C669.189 211.144 637.328 213.57 631.32 240.743C626.192 263.878 653.175 271.178 670.571 273.772C704.4 278.834 738.689 279.546 772.79 277.83C814.532 275.738 856.253 271.994 897.743 267.078C935.989 262.56 974.277 257.163 1012.04 249.549C1045.49 242.814 1079.07 233.4 1108.65 215.955C1121.44 208.424 1134.82 199.639 1143.15 187.067C1150.85 175.458 1155 161.38 1155.81 147.553C1156.63 133.726 1153.7 120.485 1145.66 109.482C1136.64 97.0987 1123.79 87.9366 1109.89 81.724C1094.96 75.0512 1079.51 72.039 1063.31 70.4074C1042.71 68.3365 1021.98 67.8763 1001.28 67.5625C984.053 67.2906 967.369 67.8763 950.224 69.3824C901.7 73.6287 853.28 79.0047 804.735 83.0209C781.289 84.9663 757.781 86.7443 734.272 87.4555C706.305 88.3132 678.379 85.9704 650.558 83.2928C609.047 79.2975 567.787 72.9594 527.175 63.3371C504.106 57.8775 480.493 52.9827 458.806 43.1512C438.71 34.031 418.278 19.5139 415.264 -4.01888C414.426 -10.6081 403.939 -10.6917 404.797 -4.01888C411.265 46.4772 471.659 61.0779 513.066 70.7839C548.339 79.0465 583.717 85.8867 619.681 90.3631C652.401 94.4421 685.79 98.1237 718.823 98.1865C765.359 98.2492 812.062 93.0825 858.346 88.6688C897.953 84.8826 937.748 79.4858 977.522 77.8751C990.208 77.3521 1003.02 78.0006 1015.7 78.2934C1035.51 78.7327 1055.58 79.3184 1075.2 82.2679C1102.35 86.3678 1137.5 101.575 1144.22 131.195C1147.21 144.436 1144.97 159.037 1139.69 171.42C1133.69 185.54 1122.97 194.367 1110.37 202.567C1082.06 220.996 1049.28 230.911 1016.5 237.919C939.883 254.297 860.942 261.995 782.838 266.765C747.523 268.919 712.397 268.585 677.27 264.192C662.784 262.372 631.341 257.456 644.362 236.078C650.684 225.682 664.186 224.113 675.239 225.221C686.292 226.33 700.904 230.284 708.147 239.195C716.855 249.926 705.635 263.271 697.345 270.216C684.932 280.612 668.059 285.089 652.61 288.77C619.053 296.761 584.743 301.551 555.101 320.566C530.671 336.233 504.274 365.811 515.138 397C519.849 410.492 530.19 421.223 543.483 426.474C560.565 433.209 580.2 435.552 598.266 438.501C637.245 444.86 676.412 449.588 715.725 453.018C756.022 456.512 796.215 458.227 836.638 459.085C877.501 459.942 918.384 460.654 959.142 463.959C972.916 465.067 985.288 468.1 996.069 477.262C1005.43 485.211 1012.46 495.838 1016.1 507.531C1023.85 532.381 1012.46 561.081 989.81 574.364C971.43 585.158 949.554 581.037 929.584 578.485C912.125 576.267 894.834 574.531 877.48 571.331C829.332 562.441 781.415 551.647 732.514 547.693C709.591 545.853 686.313 545.455 663.558 549.262C645.179 552.337 626.527 558.759 612.71 571.728C603.5 580.367 597.513 592.039 590.186 602.185C581.226 614.589 571.492 626.45 560.648 637.243C544.132 653.727 524.705 667.867 502.264 675C462.26 687.739 420.581 675.9 382.503 662.178C335.36 645.192 289.515 624.734 240.279 614.192C233.832 612.811 227.007 610.908 220.392 610.908C213.337 610.908 206.283 610.908 199.228 610.908C184.449 610.97 169.67 611.2 154.932 612.037C126.023 613.711 96.7368 617.559 69.4602 627.663C42.8954 637.515 19.1566 653.287 1.19549 675.314C-3.03312 680.481 4.33554 687.928 8.60601 682.719L8.66881 682.761Z" fill="white"/>
</g>
<defs>
<clipPath id="clip0_22_2356">
<rect width="1156" height="700" fill="white" transform="translate(0 -9)"/>
</clipPath>
</defs>
</svg>
